<svg width="24" height="24" viewBox="0 0 24 24" fill="none" xmlns="http://www.w3.org/2000/svg">
<mask id="mask0_29_86" style="mask-type:alpha" maskUnits="userSpaceOnUse" x="0" y="0" width="24" height="24">
<rect width="24" height="24" fill="#D9D9D9"/>
</mask>
<g mask="url(#mask0_29_86)">
<path d="M6.5 19.4632C6.21667 19.4632 5.97917 19.3668 5.7875 19.1742C5.59583 18.9815 5.5 18.7427 5.5 18.4579V8.40529C5.5 8.12046 5.59583 7.88171 5.7875 7.68904C5.97917 7.49636 6.21667 7.40002 6.5 7.40002C6.78333 7.40002 7.02083 7.49636 7.2125 7.68904C7.40417 7.88171 7.5 8.12046 7.5 8.40529V18.4579C7.5 18.7427 7.40417 18.9815 7.2125 19.1742C7.02083 19.3668 6.78333 19.4632 6.5 19.4632ZM16.95 18.4328L10.75 14.2609C10.45 14.0599 10.3 13.7834 10.3 13.4316C10.3 13.0798 10.45 12.8033 10.75 12.6023L16.95 8.43042C17.2833 8.21261 17.625 8.20005 17.975 8.39272C18.325 8.5854 18.5 8.88279 18.5 9.28489V17.5783C18.5 17.9804 18.325 18.282 17.975 18.4831C17.625 18.6841 17.2833 18.6673 16.95 18.4328Z" fill="white"/>
</g>
</svg>
