<svg width="48" height="48" viewBox="0 0 48 48" fill="none" xmlns="http://www.w3.org/2000/svg">
<mask id="mask0_23_257" style="mask-type:alpha" maskUnits="userSpaceOnUse" x="0" y="0" width="48" height="48">
<rect width="48" height="48" fill="#D9D9D9"/>
</mask>
<g mask="url(#mask0_23_257)">
<path d="M24 27.4219L14.275 37.198C13.9083 37.5666 13.4667 37.7467 12.95 37.7384C12.4333 37.73 11.9917 37.5415 11.625 37.1729C11.275 36.8043 11.1042 36.3645 11.1125 35.8535C11.1208 35.3425 11.3 34.9111 11.65 34.5592L21.35 24.7579L11.65 14.9566C11.3 14.6047 11.125 14.1733 11.125 13.6623C11.125 13.1513 11.3 12.7115 11.65 12.3429C12 11.9743 12.4333 11.7858 12.95 11.7774C13.4667 11.7691 13.9083 11.9492 14.275 12.3178L24 22.094L33.725 12.3178C34.0917 11.9492 34.5333 11.7691 35.05 11.7774C35.5667 11.7858 36.0083 11.9743 36.375 12.3429C36.725 12.7115 36.8958 13.1513 36.8875 13.6623C36.8792 14.1733 36.7 14.6047 36.35 14.9566L26.65 24.7579L36.35 34.5592C36.7 34.9111 36.875 35.3425 36.875 35.8535C36.875 36.3645 36.7 36.8043 36.35 37.1729C36 37.5415 35.5667 37.73 35.05 37.7384C34.5333 37.7467 34.0917 37.5666 33.725 37.198L24 27.4219Z" fill="white"/>
</g>
</svg>
