<svg width="48" height="48" viewBox="0 0 48 48" fill="none" xmlns="http://www.w3.org/2000/svg">
<mask id="mask0_23_64" style="mask-type:alpha" maskUnits="userSpaceOnUse" x="0" y="0" width="48" height="48">
<rect width="48" height="48" fill="#D9D9D9"/>
</mask>
<g mask="url(#mask0_23_64)">
<path d="M8.375 36.4189C7.85833 36.4189 7.41667 36.2346 7.05 35.8661C6.68333 35.4975 6.5 35.0535 6.5 34.5341C6.5 34.0147 6.68333 33.5707 7.05 33.2021C7.41667 32.8335 7.85833 32.6492 8.375 32.6492H39.625C40.1417 32.6492 40.5833 32.8335 40.95 33.2021C41.3167 33.5707 41.5 34.0147 41.5 34.5341C41.5 35.0535 41.3167 35.4975 40.95 35.8661C40.5833 36.2346 40.1417 36.4189 39.625 36.4189H8.375ZM8.375 26.6176C7.85833 26.6176 7.41667 26.4333 7.05 26.0647C6.68333 25.6961 6.5 25.2521 6.5 24.7328C6.5 24.2134 6.68333 23.7694 7.05 23.4008C7.41667 23.0322 7.85833 22.8479 8.375 22.8479H39.625C40.1417 22.8479 40.5833 23.0322 40.95 23.4008C41.3167 23.7694 41.5 24.2134 41.5 24.7328C41.5 25.2521 41.3167 25.6961 40.95 26.0647C40.5833 26.4333 40.1417 26.6176 39.625 26.6176H8.375ZM8.375 16.8163C7.85833 16.8163 7.41667 16.632 7.05 16.2634C6.68333 15.8948 6.5 15.4508 6.5 14.9314C6.5 14.4121 6.68333 13.9681 7.05 13.5995C7.41667 13.2309 7.85833 13.0466 8.375 13.0466H39.625C40.1417 13.0466 40.5833 13.2309 40.95 13.5995C41.3167 13.9681 41.5 14.4121 41.5 14.9314C41.5 15.4508 41.3167 15.8948 40.95 16.2634C40.5833 16.632 40.1417 16.8163 39.625 16.8163H8.375Z" fill="white"/>
</g>
</svg>
