<svg width="24" height="24" viewBox="0 0 24 24" fill="none" xmlns="http://www.w3.org/2000/svg">
<mask id="mask0_29_92" style="mask-type:alpha" maskUnits="userSpaceOnUse" x="0" y="0" width="24" height="24">
<rect width="24" height="24" fill="#D9D9D9"/>
</mask>
<g mask="url(#mask0_29_92)">
<path d="M17.5 19.4632C17.2167 19.4632 16.9792 19.3668 16.7875 19.1742C16.5958 18.9815 16.5 18.7427 16.5 18.4579V8.40529C16.5 8.12046 16.5958 7.88171 16.7875 7.68904C16.9792 7.49636 17.2167 7.40002 17.5 7.40002C17.7833 7.40002 18.0208 7.49636 18.2125 7.68904C18.4042 7.88171 18.5 8.12046 18.5 8.40529V18.4579C18.5 18.7427 18.4042 18.9815 18.2125 19.1742C18.0208 19.3668 17.7833 19.4632 17.5 19.4632ZM7.05 18.4328C6.71667 18.6673 6.375 18.6841 6.025 18.4831C5.675 18.282 5.5 17.9804 5.5 17.5783V9.28489C5.5 8.88279 5.675 8.5854 6.025 8.39272C6.375 8.20005 6.71667 8.21261 7.05 8.43042L13.25 12.6023C13.55 12.8033 13.7 13.0798 13.7 13.4316C13.7 13.7834 13.55 14.0599 13.25 14.2609L7.05 18.4328Z" fill="white"/>
</g>
</svg>
