<svg width="48" height="48" viewBox="0 0 48 48" fill="none" xmlns="http://www.w3.org/2000/svg">
<mask id="mask0_23_74" style="mask-type:alpha" maskUnits="userSpaceOnUse" x="0" y="0" width="48" height="48">
<rect width="48" height="48" fill="#D9D9D9"/>
</mask>
<g mask="url(#mask0_23_74)">
<path d="M19.0829 31.7C15.5452 31.7 12.5511 30.4758 10.1006 28.0273C7.6502 25.5788 6.42499 22.5872 6.42499 19.0523C6.42499 15.5174 7.64922 12.525 10.0977 10.075C12.5462 7.625 15.5378 6.4 19.0727 6.4C22.6076 6.4 25.6 7.62522 28.05 10.0757C30.5 12.5261 31.725 15.5202 31.725 19.0579C31.725 20.486 31.5 21.8458 31.05 23.1375C30.6 24.4292 29.9833 25.5667 29.2 26.55L40.2808 37.607C40.6436 37.969 40.825 38.4083 40.825 38.925C40.825 39.4417 40.6417 39.8833 40.275 40.25C39.9083 40.6167 39.4667 40.8 38.95 40.8C38.4333 40.8 37.9937 40.6188 37.6312 40.2565L26.558 29.175C25.5693 29.975 24.4333 30.5958 23.15 31.0375C21.8667 31.4792 20.511 31.7 19.0829 31.7ZM19.075 27.95C21.5583 27.95 23.6625 27.0875 25.3875 25.3625C27.1125 23.6375 27.975 21.5333 27.975 19.05C27.975 16.5667 27.1125 14.4625 25.3875 12.7375C23.6625 11.0125 21.5583 10.15 19.075 10.15C16.5917 10.15 14.4875 11.0125 12.7625 12.7375C11.0375 14.4625 10.175 16.5667 10.175 19.05C10.175 21.5333 11.0375 23.6375 12.7625 25.3625C14.4875 27.0875 16.5917 27.95 19.075 27.95Z" fill="white"/>
</g>
</svg>
